<svg xmlns="http://www.w3.org/2000/svg" viewBox="0 0 100 100">
  <defs>
    <linearGradient id="tealGradient" x1="0%" y1="0%" x2="100%" y2="100%">
      <stop offset="0%" style="stop-color:#1a5f5f;stop-opacity:1" />
      <stop offset="100%" style="stop-color:#2a7f7f;stop-opacity:1" />
    </linearGradient>
  </defs>
  <circle cx="50" cy="50" r="48" fill="url(#tealGradient)"/>
  <path d="M30 55 Q35 40 50 35 Q65 40 70 55 Q65 45 50 42 Q35 45 30 55" fill="white" opacity="0.9"/>
  <path d="M25 60 Q30 50 50 45 Q70 50 75 60 Q70 52 50 48 Q30 52 25 60" fill="white" opacity="0.7"/>
  <path d="M20 65 Q25 58 50 53 Q75 58 80 65 Q75 60 50 56 Q25 60 20 65" fill="white" opacity="0.5"/>
</svg>
